<svg id="svg" version="1.1" xmlns="http://www.w3.org/2000/svg" xmlns:xlink="http://www.w3.org/1999/xlink" width="400" height="400" viewBox="0, 0, 400,400"><g id="svgg"><path id="path0" d="M126.000 107.187 C 126.000 107.401,125.730 107.471,125.400 107.345 C 124.728 107.087,119.836 111.811,120.187 112.379 C 120.302 112.564,120.115 112.824,119.772 112.955 C 119.430 113.087,119.250 113.357,119.372 113.555 C 119.495 113.754,119.315 114.024,118.972 114.155 C 118.630 114.287,118.452 114.560,118.577 114.763 C 118.702 114.966,118.646 115.192,118.452 115.266 C 117.973 115.448,115.510 120.398,115.894 120.406 C 116.062 120.409,115.980 120.552,115.710 120.723 C 115.441 120.895,115.165 121.387,115.099 121.817 C 115.032 122.248,114.836 122.825,114.665 123.100 C 114.493 123.375,114.475 123.600,114.625 123.600 C 114.775 123.600,114.680 123.862,114.415 124.182 C 114.149 124.503,114.049 124.955,114.192 125.188 C 114.336 125.420,114.191 126.553,113.869 127.705 C 113.117 130.400,113.085 136.373,113.812 138.434 C 114.119 139.303,114.270 140.272,114.149 140.588 C 114.028 140.903,114.069 141.388,114.240 141.664 C 114.410 141.940,114.591 142.534,114.642 142.983 C 114.692 143.432,114.958 144.340,115.233 145.000 C 115.508 145.660,115.771 146.335,115.816 146.500 C 115.862 146.665,115.936 146.845,115.981 146.900 C 116.025 146.955,116.125 147.342,116.204 147.760 C 116.283 148.178,116.554 148.648,116.808 148.805 C 117.061 148.961,117.243 149.249,117.213 149.445 C 117.121 150.029,118.908 153.600,119.292 153.600 C 119.487 153.600,119.535 153.781,119.398 154.003 C 119.261 154.224,119.430 154.513,119.772 154.645 C 120.115 154.776,120.295 155.046,120.172 155.245 C 120.050 155.443,120.230 155.713,120.572 155.845 C 120.915 155.976,121.095 156.246,120.972 156.445 C 120.850 156.643,121.030 156.913,121.372 157.045 C 121.715 157.176,121.895 157.446,121.772 157.645 C 121.650 157.843,121.830 158.113,122.172 158.245 C 122.515 158.376,122.713 158.617,122.612 158.780 C 122.512 158.943,123.032 159.734,123.769 160.538 C 124.505 161.342,125.003 162.000,124.874 162.000 C 124.745 162.000,124.856 162.216,125.120 162.480 C 125.825 163.185,125.707 163.558,124.800 163.490 C 124.360 163.457,124.000 163.310,124.000 163.163 C 124.000 162.843,121.526 161.770,121.100 161.905 C 120.935 161.957,120.800 161.820,120.800 161.600 C 120.800 161.380,120.530 161.200,120.200 161.200 C 119.870 161.200,119.600 160.990,119.600 160.733 C 119.600 160.477,119.491 160.376,119.357 160.509 C 119.224 160.643,118.747 160.409,118.297 159.990 C 117.847 159.571,117.326 159.322,117.139 159.437 C 116.953 159.553,116.800 159.457,116.800 159.224 C 116.800 158.991,116.549 158.800,116.243 158.800 C 115.936 158.800,115.582 158.530,115.455 158.200 C 115.329 157.870,114.969 157.600,114.655 157.600 C 114.342 157.600,113.978 157.319,113.846 156.975 C 113.714 156.631,113.424 156.461,113.203 156.598 C 112.981 156.735,112.800 156.646,112.800 156.400 C 112.800 156.154,112.620 156.064,112.400 156.200 C 112.180 156.336,112.000 156.265,112.000 156.042 C 112.000 155.229,109.223 155.055,108.384 155.814 C 107.558 156.562,107.302 158.400,108.024 158.400 C 108.257 158.400,108.334 158.583,108.195 158.807 C 107.908 159.273,109.477 162.000,110.033 162.000 C 110.235 162.000,110.400 162.230,110.400 162.512 C 110.400 163.137,115.245 168.000,115.868 168.000 C 116.114 168.000,116.422 168.281,116.554 168.625 C 116.686 168.969,116.957 169.150,117.155 169.028 C 117.354 168.905,117.624 169.085,117.755 169.428 C 117.887 169.770,118.176 169.939,118.397 169.802 C 118.619 169.665,118.800 169.752,118.800 169.996 C 118.800 170.499,121.231 171.628,121.696 171.341 C 121.863 171.237,122.000 171.324,122.000 171.533 C 122.000 171.858,122.451 172.053,124.500 172.617 C 124.665 172.663,124.890 172.745,125.000 172.800 C 125.110 172.855,125.380 172.945,125.600 173.000 C 125.820 173.055,126.090 173.145,126.200 173.200 C 126.310 173.255,126.580 173.345,126.800 173.400 C 127.020 173.455,127.245 173.536,127.300 173.581 C 127.560 173.790,129.120 174.100,130.200 174.156 C 130.860 174.191,131.637 174.368,131.927 174.549 C 132.216 174.731,132.560 174.774,132.690 174.644 C 132.820 174.513,133.134 174.579,133.388 174.790 C 133.795 175.128,134.953 175.389,137.800 175.786 C 138.240 175.847,138.870 176.008,139.200 176.144 C 139.530 176.280,140.160 176.456,140.600 176.535 C 141.040 176.615,141.670 176.793,142.000 176.931 C 142.330 177.068,143.320 177.263,144.200 177.362 C 145.080 177.462,145.845 177.578,145.900 177.621 C 145.955 177.665,146.135 177.725,146.300 177.756 C 146.465 177.787,146.825 177.955,147.100 178.130 C 147.375 178.304,147.603 178.302,147.606 178.124 C 147.609 177.946,147.744 178.006,147.906 178.259 C 148.068 178.511,148.650 178.781,149.200 178.859 C 149.750 178.936,150.306 179.144,150.436 179.320 C 150.566 179.496,151.061 179.669,151.536 179.705 C 152.011 179.741,152.400 179.923,152.400 180.109 C 152.400 180.295,152.580 180.336,152.800 180.200 C 153.020 180.064,153.200 180.154,153.200 180.400 C 153.200 180.646,153.380 180.736,153.600 180.600 C 153.820 180.464,154.000 180.543,154.000 180.776 C 154.000 181.009,154.135 181.164,154.300 181.121 C 154.465 181.077,155.950 181.743,157.600 182.600 C 159.250 183.457,160.735 184.123,160.900 184.079 C 161.065 184.036,161.200 184.168,161.200 184.373 C 161.200 184.578,161.563 184.861,162.006 185.002 C 162.449 185.143,162.697 185.444,162.556 185.672 C 162.386 185.947,162.216 185.951,162.050 185.683 C 161.913 185.461,161.440 185.217,161.000 185.140 C 160.560 185.063,160.094 184.856,159.964 184.680 C 159.834 184.504,159.339 184.331,158.864 184.295 C 158.389 184.259,158.000 184.069,158.000 183.872 C 158.000 183.675,157.736 183.616,157.413 183.740 C 157.090 183.864,156.717 183.790,156.585 183.576 C 156.453 183.362,156.190 183.283,156.000 183.400 C 155.810 183.517,155.540 183.427,155.400 183.200 C 155.260 182.973,154.990 182.883,154.800 183.000 C 154.610 183.117,154.347 183.038,154.215 182.824 C 154.083 182.610,153.710 182.536,153.387 182.660 C 153.064 182.784,152.800 182.686,152.800 182.443 C 152.800 182.193,152.103 182.000,151.200 182.000 C 150.320 182.000,149.600 182.180,149.600 182.400 C 149.600 182.620,149.375 182.755,149.100 182.700 C 148.825 182.645,148.645 182.825,148.700 183.100 C 148.755 183.375,148.654 183.600,148.475 183.600 C 148.002 183.600,147.890 187.185,148.346 187.735 C 148.558 187.991,148.747 188.335,148.766 188.500 C 148.785 188.665,148.813 188.845,148.830 188.900 C 148.846 188.955,148.941 189.450,149.041 190.000 C 149.141 190.550,149.399 191.060,149.614 191.134 C 149.829 191.208,149.903 191.433,149.779 191.634 C 149.655 191.835,149.754 192.000,150.000 192.000 C 150.246 192.000,150.336 192.180,150.200 192.400 C 150.064 192.620,150.154 192.800,150.400 192.800 C 150.646 192.800,150.740 192.973,150.609 193.185 C 150.478 193.397,150.722 193.922,151.152 194.352 C 151.582 194.782,151.841 195.226,151.728 195.339 C 151.615 195.452,151.900 195.780,152.361 196.069 C 152.822 196.357,153.200 196.784,153.200 197.018 C 153.200 197.541,155.692 200.000,156.223 200.000 C 156.434 200.000,156.837 200.367,157.117 200.816 C 157.397 201.264,157.781 201.535,157.971 201.418 C 158.161 201.301,158.419 201.474,158.546 201.802 C 158.672 202.131,159.031 202.400,159.345 202.400 C 159.658 202.400,160.018 202.670,160.145 203.000 C 160.271 203.330,160.651 203.600,160.987 203.600 C 161.324 203.600,161.600 203.791,161.600 204.024 C 161.600 204.257,161.780 204.336,162.000 204.200 C 162.220 204.064,162.400 204.154,162.400 204.400 C 162.400 204.646,162.580 204.736,162.800 204.600 C 163.020 204.464,163.200 204.554,163.200 204.800 C 163.200 205.046,163.380 205.136,163.600 205.000 C 163.820 204.864,164.000 204.954,164.000 205.200 C 164.000 205.446,164.180 205.536,164.400 205.400 C 164.620 205.264,164.800 205.354,164.800 205.600 C 164.800 205.846,164.980 205.936,165.200 205.800 C 165.420 205.664,165.600 205.754,165.600 206.000 C 165.600 206.246,165.780 206.336,166.000 206.200 C 166.220 206.064,166.400 206.163,166.400 206.419 C 166.400 206.676,166.670 206.782,167.000 206.655 C 167.330 206.529,167.600 206.619,167.600 206.855 C 167.600 207.092,167.870 207.182,168.200 207.055 C 168.530 206.929,168.800 206.956,168.800 207.115 C 168.800 207.274,169.301 207.627,169.914 207.898 C 170.527 208.169,171.042 208.708,171.059 209.096 C 171.233 213.093,171.390 214.386,171.837 215.500 C 172.124 216.215,172.256 216.800,172.131 216.800 C 172.005 216.800,172.149 217.098,172.451 217.461 C 172.753 217.825,172.929 218.140,172.841 218.161 C 172.516 218.240,173.268 220.000,173.627 220.000 C 173.832 220.000,174.000 220.177,174.000 220.392 C 174.000 220.608,174.605 221.733,175.345 222.892 C 176.635 224.913,178.887 229.073,179.031 229.700 C 179.069 229.865,179.123 230.281,179.150 230.624 C 179.178 230.967,179.362 231.147,179.559 231.025 C 181.138 230.049,182.725 233.635,184.592 242.400 C 185.178 245.150,186.094 248.849,186.628 250.621 C 188.075 255.416,187.898 256.620,186.037 254.639 C 184.997 253.533,182.345 245.920,181.400 241.328 C 180.246 235.727,177.448 233.973,176.590 238.314 C 176.269 239.941,176.207 240.274,175.565 243.800 C 175.325 245.120,175.095 246.380,175.053 246.600 C 175.012 246.820,174.837 247.225,174.665 247.500 C 174.493 247.775,174.436 248.000,174.537 248.000 C 174.639 248.000,174.472 248.831,174.166 249.847 C 173.860 250.862,173.701 251.840,173.812 252.019 C 173.922 252.198,173.818 252.465,173.579 252.613 C 173.341 252.760,173.240 253.127,173.355 253.428 C 173.471 253.728,173.381 254.088,173.155 254.228 C 172.930 254.367,172.840 254.727,172.955 255.028 C 173.071 255.328,172.981 255.688,172.755 255.828 C 172.530 255.967,172.440 256.327,172.555 256.628 C 172.671 256.928,172.581 257.288,172.355 257.428 C 172.130 257.567,172.040 257.927,172.155 258.228 C 172.271 258.528,172.181 258.888,171.955 259.028 C 171.730 259.167,171.634 259.511,171.741 259.792 C 171.849 260.073,171.736 260.504,171.489 260.751 C 171.242 260.998,171.188 261.200,171.369 261.200 C 171.550 261.200,171.490 261.451,171.235 261.757 C 170.981 262.064,170.694 262.829,170.597 263.457 C 170.392 264.792,170.096 266.157,169.981 266.300 C 169.936 266.355,169.855 266.580,169.800 266.800 C 169.745 267.020,169.655 267.290,169.600 267.400 C 169.545 267.510,169.455 267.780,169.400 268.000 C 169.345 268.220,169.255 268.490,169.200 268.600 C 169.145 268.710,169.055 268.980,169.000 269.200 C 168.945 269.420,168.855 269.690,168.800 269.800 C 168.745 269.910,168.655 270.180,168.600 270.400 C 168.545 270.620,168.455 270.890,168.400 271.000 C 168.345 271.110,168.255 271.380,168.200 271.600 C 168.145 271.820,168.055 272.090,168.000 272.200 C 167.945 272.310,167.855 272.580,167.800 272.800 C 167.745 273.020,167.655 273.245,167.599 273.300 C 167.171 273.723,166.884 278.805,167.274 279.046 C 167.461 279.161,167.509 279.424,167.381 279.630 C 167.254 279.837,167.431 280.114,167.775 280.246 C 168.119 280.378,168.400 280.699,168.400 280.960 C 168.400 281.487,171.642 284.800,172.158 284.800 C 172.338 284.800,172.846 285.259,173.288 285.821 C 173.730 286.383,174.171 286.762,174.269 286.665 C 174.366 286.567,175.016 287.008,175.712 287.644 C 176.409 288.280,177.165 288.800,177.393 288.800 C 177.621 288.800,178.032 289.160,178.307 289.600 C 178.582 290.040,179.032 290.400,179.307 290.400 C 179.582 290.400,180.037 290.767,180.317 291.216 C 180.597 291.664,180.981 291.935,181.171 291.818 C 181.361 291.701,181.629 291.899,181.768 292.260 C 181.906 292.620,182.116 292.818,182.234 292.699 C 182.353 292.581,182.911 292.912,183.475 293.434 C 184.039 293.957,184.639 294.299,184.808 294.195 C 184.978 294.090,185.224 294.285,185.355 294.628 C 185.487 294.970,185.757 295.150,185.955 295.028 C 186.154 294.905,186.424 295.085,186.555 295.428 C 186.687 295.770,186.957 295.950,187.155 295.828 C 187.354 295.705,187.624 295.885,187.755 296.228 C 187.887 296.570,188.157 296.750,188.355 296.628 C 188.554 296.505,188.829 296.699,188.968 297.060 C 189.106 297.420,189.316 297.618,189.434 297.499 C 189.553 297.381,190.111 297.712,190.675 298.234 C 191.239 298.757,191.843 299.097,192.016 298.990 C 192.190 298.883,192.392 298.939,192.466 299.114 C 193.514 301.604,204.000 303.443,204.000 301.136 C 204.000 300.951,204.135 300.836,204.300 300.881 C 205.116 301.101,219.600 291.877,219.600 291.137 C 219.600 290.952,219.857 290.800,220.171 290.800 C 220.485 290.800,221.115 290.326,221.571 289.746 C 222.027 289.166,222.406 288.851,222.413 289.046 C 222.421 289.241,222.758 289.003,223.164 288.517 C 223.569 288.031,223.999 287.732,224.118 287.852 C 224.238 287.971,224.641 287.604,225.014 287.035 C 225.387 286.466,225.920 286.000,226.199 286.000 C 226.477 286.000,227.186 285.370,227.773 284.600 C 228.360 283.830,229.088 283.200,229.389 283.200 C 230.078 283.200,232.851 280.006,232.564 279.542 C 232.448 279.354,232.530 279.200,232.747 279.200 C 232.978 279.200,233.070 278.329,232.971 277.100 C 232.877 275.945,232.789 274.685,232.775 274.300 C 232.761 273.915,232.620 273.600,232.460 273.600 C 232.301 273.600,232.141 273.211,232.105 272.736 C 232.069 272.261,231.896 271.766,231.720 271.636 C 231.544 271.506,231.350 271.040,231.289 270.600 C 231.168 269.729,230.909 268.659,230.781 268.500 C 230.736 268.445,230.655 268.220,230.600 268.000 C 230.545 267.780,230.455 267.510,230.400 267.400 C 230.279 267.158,230.249 267.027,229.846 265.000 C 229.671 264.120,229.342 263.175,229.115 262.900 C 228.888 262.625,228.836 262.400,229.000 262.400 C 229.164 262.400,229.111 262.175,228.883 261.900 C 228.655 261.625,228.453 261.265,228.434 261.100 C 228.415 260.935,228.388 260.755,228.373 260.700 C 228.358 260.645,228.267 259.987,228.169 259.237 C 228.072 258.487,227.816 257.660,227.600 257.400 C 227.384 257.139,227.321 256.812,227.460 256.673 C 227.600 256.533,227.510 256.173,227.260 255.873 C 227.011 255.572,226.921 255.212,227.060 255.073 C 227.200 254.933,227.086 254.545,226.808 254.210 C 226.530 253.874,226.436 253.600,226.600 253.600 C 226.764 253.600,226.697 253.358,226.452 253.063 C 226.207 252.768,226.113 252.420,226.244 252.290 C 226.374 252.160,226.350 251.843,226.191 251.585 C 226.032 251.328,225.842 250.359,225.769 249.432 C 225.696 248.506,225.419 247.219,225.154 246.574 C 224.888 245.928,224.706 245.246,224.749 245.058 C 224.793 244.870,224.626 244.473,224.380 244.175 C 224.133 243.878,224.048 243.445,224.192 243.213 C 224.482 242.744,223.284 236.796,222.792 236.260 C 222.620 236.072,221.932 236.039,221.262 236.186 C 219.833 236.500,219.449 237.401,217.843 244.200 C 216.599 249.465,215.069 253.442,213.773 254.779 C 212.320 256.277,212.136 255.470,213.112 251.878 C 213.602 250.075,214.713 245.414,215.581 241.519 C 216.449 237.625,217.442 233.893,217.787 233.226 C 218.441 231.960,220.476 230.625,221.004 231.116 C 221.172 231.272,221.220 230.905,221.110 230.300 C 221.001 229.695,221.054 229.200,221.229 229.200 C 221.538 229.200,222.209 227.553,222.025 227.245 C 221.973 227.159,222.082 226.979,222.266 226.845 C 222.707 226.522,224.104 224.000,223.842 224.000 C 223.730 224.000,224.076 223.527,224.612 222.950 C 225.147 222.372,225.499 221.761,225.395 221.592 C 225.290 221.422,225.485 221.176,225.828 221.045 C 226.170 220.913,226.339 220.624,226.202 220.403 C 226.065 220.181,226.131 220.000,226.349 220.000 C 226.685 220.000,227.155 219.087,227.430 217.900 C 227.469 217.735,227.536 217.555,227.581 217.500 C 227.684 217.371,227.972 216.077,228.181 214.800 C 228.271 214.250,228.385 213.710,228.433 213.600 C 228.529 213.385,228.528 213.389,228.958 211.000 C 229.532 207.812,229.617 207.600,230.319 207.600 C 230.705 207.600,231.398 207.336,231.858 207.014 C 232.319 206.692,232.809 206.542,232.947 206.681 C 233.086 206.820,233.200 206.713,233.200 206.443 C 233.200 206.173,233.380 206.064,233.600 206.200 C 233.820 206.336,234.000 206.246,234.000 206.000 C 234.000 205.754,234.180 205.664,234.400 205.800 C 234.620 205.936,234.800 205.846,234.800 205.600 C 234.800 205.354,234.980 205.264,235.200 205.400 C 235.420 205.536,235.600 205.446,235.600 205.200 C 235.600 204.954,235.780 204.864,236.000 205.000 C 236.220 205.136,236.400 205.046,236.400 204.800 C 236.400 204.554,236.580 204.464,236.800 204.600 C 237.020 204.736,237.200 204.646,237.200 204.400 C 237.200 204.154,237.365 204.055,237.568 204.180 C 237.770 204.305,238.214 204.129,238.553 203.789 C 238.893 203.450,239.248 203.223,239.341 203.286 C 239.603 203.462,243.200 200.793,243.200 200.422 C 243.200 200.241,243.544 200.003,243.964 199.894 C 244.688 199.704,248.290 195.451,248.447 194.600 C 248.487 194.380,248.808 193.981,249.160 193.713 C 249.512 193.445,249.652 193.220,249.471 193.213 C 249.291 193.206,249.427 192.915,249.775 192.568 C 250.123 192.220,250.305 191.770,250.180 191.568 C 250.055 191.365,250.154 191.200,250.400 191.200 C 250.646 191.200,250.744 191.032,250.617 190.828 C 250.491 190.623,250.573 190.340,250.800 190.200 C 251.027 190.060,251.109 189.777,250.983 189.572 C 250.856 189.368,250.963 189.200,251.219 189.200 C 251.476 189.200,251.589 188.948,251.470 188.639 C 251.352 188.331,251.378 187.956,251.528 187.806 C 251.677 187.656,251.815 187.413,251.833 187.267 C 251.851 187.120,252.002 186.518,252.169 185.929 C 252.513 184.716,251.639 182.538,250.873 182.700 C 250.613 182.755,250.400 182.620,250.400 182.400 C 250.400 181.874,247.321 181.880,246.996 182.407 C 246.858 182.630,246.590 182.717,246.400 182.600 C 246.210 182.483,245.940 182.573,245.800 182.800 C 245.660 183.027,245.390 183.117,245.200 183.000 C 245.010 182.883,244.740 182.973,244.600 183.200 C 244.460 183.427,244.190 183.517,244.000 183.400 C 243.810 183.283,243.547 183.362,243.415 183.576 C 243.283 183.790,242.910 183.864,242.587 183.740 C 242.264 183.616,242.000 183.675,242.000 183.872 C 242.000 184.069,241.611 184.259,241.136 184.295 C 240.661 184.331,240.166 184.504,240.036 184.680 C 239.906 184.856,239.440 185.063,239.000 185.140 C 238.560 185.217,238.110 185.397,238.000 185.540 C 237.652 185.992,236.400 186.053,236.400 185.618 C 236.400 185.388,236.535 185.242,236.700 185.292 C 237.100 185.415,244.919 181.510,245.294 181.000 C 245.456 180.780,245.591 180.739,245.594 180.908 C 245.597 181.078,246.275 180.874,247.100 180.455 C 248.577 179.706,255.614 177.344,257.324 177.024 C 257.806 176.933,258.200 176.833,258.200 176.800 C 258.200 176.767,258.650 176.662,259.200 176.566 C 259.750 176.469,260.470 176.280,260.800 176.144 C 261.130 176.008,261.760 175.847,262.200 175.786 C 264.778 175.426,266.162 175.147,266.548 174.908 C 266.789 174.760,267.349 174.587,267.793 174.526 C 268.237 174.464,269.230 174.323,270.000 174.212 C 270.770 174.102,271.715 173.997,272.100 173.981 C 272.485 173.964,272.800 173.787,272.800 173.588 C 272.800 173.388,273.070 173.329,273.400 173.455 C 273.730 173.582,274.000 173.531,274.000 173.343 C 274.000 173.154,274.445 172.974,274.989 172.943 C 276.324 172.866,281.200 170.554,281.200 169.997 C 281.200 169.753,281.381 169.665,281.603 169.802 C 281.824 169.939,282.113 169.770,282.245 169.428 C 282.376 169.085,282.634 168.897,282.817 169.011 C 283.001 169.124,283.336 168.898,283.563 168.508 C 283.790 168.119,283.981 167.958,283.988 168.150 C 284.004 168.620,289.200 163.354,289.200 162.867 C 289.200 162.657,289.496 162.372,289.857 162.233 C 290.219 162.095,290.418 161.884,290.299 161.766 C 290.181 161.647,290.522 161.078,291.056 160.501 C 291.591 159.924,291.934 159.206,291.819 158.905 C 291.704 158.605,291.787 158.468,292.005 158.603 C 292.612 158.978,292.478 156.563,291.863 156.052 C 291.568 155.807,291.208 155.725,291.063 155.870 C 290.918 156.015,290.800 155.923,290.800 155.667 C 290.800 155.410,290.440 155.200,290.000 155.200 C 289.560 155.200,289.200 155.374,289.200 155.587 C 289.200 155.801,288.930 155.871,288.600 155.745 C 288.270 155.618,288.000 155.724,288.000 155.981 C 288.000 156.237,287.820 156.336,287.600 156.200 C 287.380 156.064,287.200 156.154,287.200 156.400 C 287.200 156.646,287.032 156.744,286.827 156.617 C 286.622 156.490,286.172 156.790,285.827 157.282 C 285.482 157.775,285.200 158.039,285.200 157.869 C 285.200 157.698,284.615 157.997,283.900 158.532 C 283.185 159.068,281.970 159.822,281.200 160.209 C 280.430 160.595,279.668 161.112,279.506 161.356 C 279.344 161.600,279.209 161.655,279.206 161.477 C 279.201 161.195,276.938 162.262,276.400 162.800 C 276.290 162.910,275.930 163.067,275.600 163.149 C 275.270 163.231,274.687 163.386,274.304 163.494 C 273.856 163.621,274.104 163.150,275.004 162.167 C 275.772 161.329,276.400 160.428,276.400 160.165 C 276.400 159.901,276.681 159.578,277.025 159.446 C 277.369 159.314,277.550 159.043,277.428 158.845 C 277.305 158.646,277.485 158.376,277.828 158.245 C 278.170 158.113,278.350 157.843,278.228 157.645 C 278.105 157.446,278.285 157.176,278.628 157.045 C 278.970 156.913,279.150 156.643,279.028 156.445 C 278.905 156.246,279.085 155.976,279.428 155.845 C 279.770 155.713,279.950 155.443,279.828 155.245 C 279.705 155.046,279.885 154.776,280.228 154.645 C 280.570 154.513,280.739 154.224,280.602 154.003 C 280.465 153.781,280.552 153.600,280.795 153.600 C 281.318 153.600,283.249 149.603,282.955 149.127 C 282.844 148.947,282.954 148.800,283.200 148.800 C 283.446 148.800,283.536 148.620,283.400 148.400 C 283.264 148.180,283.354 148.000,283.600 148.000 C 283.846 148.000,283.944 147.832,283.817 147.628 C 283.691 147.423,283.773 147.140,284.000 147.000 C 284.227 146.860,284.309 146.577,284.183 146.372 C 284.056 146.168,284.163 146.000,284.419 146.000 C 284.676 146.000,284.782 145.730,284.655 145.400 C 284.529 145.070,284.619 144.800,284.855 144.800 C 285.092 144.800,285.189 144.548,285.070 144.239 C 284.952 143.931,284.978 143.556,285.128 143.406 C 285.277 143.256,285.423 142.968,285.450 142.767 C 285.478 142.565,285.546 142.355,285.602 142.300 C 285.705 142.199,285.780 141.559,286.050 138.501 C 286.132 137.566,286.322 136.801,286.471 136.801 C 286.620 136.800,286.732 135.000,286.720 132.800 C 286.708 130.600,286.579 128.800,286.434 128.800 C 286.290 128.800,286.156 128.485,286.138 128.100 C 286.012 125.477,285.574 123.031,285.187 122.792 C 284.937 122.637,284.747 122.396,284.766 122.255 C 284.785 122.115,284.786 121.955,284.769 121.900 C 284.753 121.845,284.685 121.530,284.619 121.200 C 284.347 119.833,282.016 115.200,281.601 115.200 C 281.355 115.200,281.250 115.043,281.369 114.850 C 281.488 114.658,281.157 114.039,280.634 113.475 C 280.112 112.911,279.781 112.353,279.899 112.234 C 280.018 112.116,279.820 111.906,279.460 111.768 C 279.099 111.629,278.894 111.372,279.003 111.196 C 279.308 110.702,275.145 107.136,274.536 107.369 C 274.241 107.482,274.000 107.401,274.000 107.187 C 274.000 106.542,272.727 106.753,272.114 107.500 C 271.739 107.958,271.630 107.993,271.800 107.600 C 271.943 107.270,271.776 107.349,271.430 107.776 C 270.706 108.669,270.621 109.442,271.207 109.804 C 271.430 109.942,271.509 110.223,271.383 110.428 C 271.256 110.632,271.373 110.800,271.643 110.800 C 271.913 110.800,272.022 110.911,271.886 111.047 C 271.750 111.183,272.476 112.938,273.499 114.947 C 274.522 116.956,275.391 118.735,275.430 118.900 C 275.468 119.065,275.537 119.245,275.583 119.300 C 275.628 119.355,275.751 119.926,275.856 120.569 C 275.960 121.212,276.250 122.112,276.498 122.569 C 277.428 124.277,277.896 129.481,277.179 130.142 C 276.805 130.487,276.748 130.483,276.950 130.125 C 277.097 129.863,276.898 129.464,276.508 129.237 C 276.119 129.010,275.946 128.819,276.124 128.812 C 276.302 128.805,274.807 127.190,272.801 125.223 C 270.796 123.255,269.063 121.680,268.950 121.723 C 268.836 121.765,268.563 121.477,268.342 121.082 C 268.066 120.589,267.684 120.446,267.120 120.625 C 266.573 120.799,266.391 120.738,266.574 120.443 C 267.014 119.729,265.362 119.923,264.753 120.656 C 263.962 121.609,263.935 123.705,264.706 124.300 C 265.062 124.575,265.187 124.800,264.985 124.800 C 264.782 124.800,265.005 125.205,265.480 125.700 C 267.672 127.985,268.299 128.767,268.100 128.966 C 267.982 129.084,268.180 129.294,268.540 129.432 C 268.901 129.571,269.095 129.846,268.972 130.045 C 268.850 130.243,269.030 130.513,269.372 130.645 C 269.715 130.776,269.895 131.046,269.772 131.245 C 269.650 131.443,269.830 131.713,270.172 131.845 C 270.515 131.976,270.696 132.245,270.574 132.442 C 270.452 132.639,270.573 132.800,270.843 132.800 C 271.113 132.800,271.220 132.914,271.081 133.053 C 270.942 133.192,271.040 133.687,271.300 134.153 C 271.559 134.619,271.801 135.135,271.836 135.300 C 271.871 135.465,271.945 135.690,272.000 135.800 C 272.055 135.910,272.145 136.180,272.200 136.400 C 272.255 136.620,272.338 136.845,272.383 136.900 C 272.932 137.559,273.206 144.878,272.705 145.500 C 272.483 145.775,272.436 146.000,272.600 146.000 C 272.764 146.000,272.697 146.242,272.452 146.537 C 272.207 146.832,272.125 147.192,272.270 147.337 C 272.415 147.482,272.313 147.600,272.043 147.600 C 271.773 147.600,271.664 147.780,271.800 148.000 C 271.936 148.220,271.846 148.400,271.600 148.400 C 271.354 148.400,271.264 148.580,271.400 148.800 C 271.536 149.020,271.495 149.200,271.310 149.200 C 270.909 149.200,269.376 151.668,269.508 152.100 C 269.559 152.265,269.390 152.400,269.133 152.400 C 268.877 152.400,268.777 152.510,268.912 152.645 C 269.046 152.780,268.627 153.455,267.980 154.145 C 267.333 154.835,266.803 155.499,266.802 155.620 C 266.799 156.008,262.398 160.400,262.012 160.400 C 261.807 160.400,261.480 160.686,261.284 161.036 C 261.088 161.386,260.854 161.639,260.764 161.599 C 260.419 161.445,258.400 162.546,258.400 162.888 C 258.400 163.085,258.231 163.143,258.024 163.015 C 257.817 162.887,257.417 163.029,257.136 163.331 C 255.732 164.833,255.397 163.771,255.479 158.080 C 255.555 152.847,255.108 149.600,254.313 149.600 C 254.115 149.600,254.051 149.440,254.172 149.245 C 254.880 148.100,251.431 147.312,250.470 148.400 C 250.000 148.933,249.973 148.933,250.229 148.400 C 250.452 147.937,250.404 147.905,250.019 148.260 C 249.732 148.524,249.456 150.053,249.368 151.860 C 249.285 153.587,249.107 155.672,248.974 156.494 C 248.841 157.316,248.715 158.126,248.694 158.294 C 248.674 158.462,248.418 158.840,248.125 159.132 C 247.832 159.425,247.695 159.830,247.820 160.032 C 247.945 160.235,247.857 160.400,247.624 160.400 C 247.391 160.400,247.200 160.579,247.200 160.797 C 247.200 161.015,246.847 161.600,246.415 162.097 C 245.983 162.594,245.578 163.153,245.515 163.341 C 245.306 163.961,241.006 168.214,240.713 168.090 C 240.555 168.024,240.197 168.336,239.917 168.784 C 239.637 169.233,239.194 169.600,238.933 169.600 C 238.672 169.600,238.085 170.074,237.629 170.654 C 237.173 171.234,236.794 171.549,236.787 171.354 C 236.779 171.159,236.457 171.379,236.070 171.841 C 235.683 172.304,234.969 172.895,234.483 173.155 C 233.511 173.676,233.491 173.627,233.527 170.801 C 233.545 169.391,232.588 167.836,231.947 168.233 C 231.756 168.351,231.600 168.257,231.600 168.024 C 231.600 167.791,231.229 167.600,230.776 167.600 C 230.323 167.600,230.063 167.778,230.197 167.995 C 230.332 168.213,230.196 168.297,229.896 168.181 C 229.315 167.959,227.999 169.170,227.851 170.065 C 227.802 170.359,227.552 170.981,227.295 171.447 C 227.038 171.913,226.942 172.408,227.081 172.547 C 227.220 172.686,227.113 172.800,226.843 172.800 C 226.573 172.800,226.452 172.961,226.574 173.158 C 226.696 173.355,226.515 173.624,226.172 173.755 C 225.830 173.887,225.650 174.157,225.772 174.355 C 225.895 174.554,225.715 174.824,225.372 174.955 C 225.030 175.087,224.850 175.357,224.972 175.555 C 225.095 175.754,224.915 176.024,224.572 176.155 C 224.230 176.287,224.050 176.557,224.172 176.755 C 224.295 176.954,224.126 177.219,223.798 177.346 C 223.469 177.472,223.200 177.807,223.200 178.091 C 223.200 178.375,222.833 178.837,222.384 179.117 C 221.936 179.397,221.665 179.781,221.782 179.971 C 221.899 180.161,221.724 180.420,221.392 180.548 C 221.060 180.675,220.615 181.234,220.404 181.790 C 220.193 182.345,219.756 182.800,219.433 182.800 C 219.110 182.800,218.594 183.159,218.287 183.597 C 217.980 184.036,217.630 184.297,217.510 184.176 C 217.390 184.056,216.930 184.417,216.488 184.979 C 216.046 185.541,215.496 186.000,215.265 186.000 C 215.034 186.000,214.565 186.400,214.223 186.889 C 213.880 187.378,213.600 187.636,213.600 187.462 C 213.600 187.094,208.742 189.606,208.306 190.200 C 208.144 190.420,208.009 190.443,208.006 190.251 C 208.003 190.059,207.758 190.103,207.463 190.348 C 207.168 190.593,206.812 190.679,206.673 190.540 C 206.533 190.400,206.173 190.490,205.873 190.740 C 205.572 190.989,205.220 191.087,205.090 190.956 C 204.960 190.826,204.632 190.857,204.361 191.024 C 203.024 191.850,196.961 191.841,195.618 191.011 C 195.359 190.851,195.040 190.826,194.910 190.956 C 194.780 191.087,194.451 191.008,194.179 190.782 C 193.907 190.557,193.530 190.416,193.342 190.471 C 193.154 190.525,192.595 190.345,192.100 190.071 C 191.605 189.796,191.200 189.696,191.200 189.848 C 191.200 190.000,190.885 189.848,190.500 189.510 C 189.666 188.779,187.200 187.491,187.200 187.787 C 187.200 187.901,186.795 187.643,186.300 187.212 C 185.805 186.782,185.278 186.409,185.128 186.383 C 184.979 186.357,184.101 185.676,183.178 184.868 C 181.712 183.587,180.534 182.395,177.000 178.619 C 176.560 178.148,176.148 177.592,176.085 177.382 C 176.022 177.172,175.632 176.610,175.218 176.134 C 174.804 175.658,174.570 175.163,174.699 175.034 C 174.828 174.905,174.723 174.800,174.467 174.800 C 174.210 174.800,174.032 174.665,174.072 174.500 C 174.170 174.093,172.676 171.034,172.298 170.866 C 172.131 170.792,172.097 170.567,172.221 170.366 C 172.345 170.165,172.246 170.000,172.000 170.000 C 171.754 170.000,171.649 169.844,171.767 169.653 C 172.094 169.125,170.521 167.878,169.963 168.223 C 169.653 168.415,169.580 168.356,169.762 168.062 C 170.187 167.374,168.736 167.489,167.682 168.227 C 167.190 168.572,166.890 169.022,167.017 169.227 C 167.144 169.432,167.044 169.600,166.795 169.600 C 166.546 169.600,166.376 170.005,166.416 170.500 C 166.700 174.009,166.352 174.071,163.061 171.100 C 162.148 170.275,161.240 169.600,161.044 169.600 C 160.848 169.600,160.458 169.285,160.176 168.900 C 159.895 168.515,159.513 168.200,159.327 168.200 C 159.142 168.200,157.921 167.030,156.615 165.600 C 155.308 164.170,154.094 162.940,153.917 162.866 C 153.740 162.792,153.698 162.566,153.823 162.363 C 153.948 162.160,153.770 161.887,153.428 161.755 C 153.085 161.624,152.905 161.354,153.028 161.155 C 153.150 160.957,152.970 160.687,152.628 160.555 C 152.285 160.424,152.104 160.155,152.226 159.958 C 152.348 159.761,152.295 159.600,152.109 159.600 C 151.923 159.600,151.741 159.211,151.705 158.736 C 151.669 158.261,151.496 157.766,151.320 157.636 C 150.930 157.348,150.861 156.725,150.751 152.484 C 150.695 150.340,150.465 148.925,150.102 148.484 C 149.793 148.108,149.631 147.986,149.741 148.214 C 149.851 148.442,149.604 148.629,149.193 148.629 C 148.698 148.629,148.567 148.481,148.806 148.192 C 149.056 147.892,148.797 147.782,147.972 147.839 C 146.650 147.931,145.487 148.693,145.828 149.245 C 145.949 149.440,145.837 149.600,145.581 149.600 C 145.324 149.600,145.214 149.858,145.335 150.174 C 145.456 150.490,145.370 150.810,145.144 150.885 C 144.593 151.069,144.453 163.547,145.000 163.745 C 145.220 163.825,145.255 164.045,145.078 164.234 C 144.901 164.422,144.606 164.334,144.423 164.037 C 144.240 163.740,143.889 163.621,143.645 163.772 C 143.400 163.924,143.200 163.846,143.200 163.600 C 143.200 163.354,143.020 163.264,142.800 163.400 C 142.580 163.536,142.400 163.446,142.400 163.200 C 142.400 162.954,142.220 162.864,142.000 163.000 C 141.780 163.136,141.600 163.046,141.600 162.800 C 141.600 162.554,141.435 162.455,141.234 162.579 C 141.033 162.703,140.808 162.637,140.734 162.432 C 140.660 162.228,140.330 162.001,140.000 161.930 C 139.670 161.858,139.165 161.485,138.877 161.100 C 138.590 160.715,138.166 160.400,137.935 160.400 C 137.704 160.400,137.160 159.948,136.726 159.396 C 136.291 158.844,135.743 158.512,135.506 158.658 C 135.264 158.807,135.191 158.737,135.339 158.498 C 135.484 158.264,135.062 157.618,134.401 157.062 C 133.740 156.506,133.200 155.870,133.200 155.649 C 133.200 155.427,132.864 155.010,132.454 154.723 C 132.043 154.435,131.685 154.020,131.657 153.800 C 131.629 153.580,131.375 153.130,131.093 152.800 C 130.810 152.470,130.540 152.020,130.493 151.800 C 130.445 151.580,130.135 151.083,129.803 150.695 C 129.471 150.308,129.200 149.813,129.200 149.595 C 129.200 149.378,129.009 149.200,128.776 149.200 C 128.543 149.200,128.464 149.020,128.600 148.800 C 128.736 148.580,128.695 148.400,128.509 148.400 C 128.323 148.400,128.141 148.011,128.105 147.536 C 128.069 147.061,127.806 146.524,127.520 146.342 C 127.234 146.161,127.157 146.009,127.349 146.006 C 127.541 146.003,127.497 145.758,127.252 145.463 C 127.007 145.168,126.921 144.812,127.060 144.673 C 127.200 144.533,127.142 144.190,126.932 143.910 C 126.473 143.296,126.481 141.206,126.946 140.473 C 127.130 140.184,127.187 139.854,127.074 139.741 C 126.961 139.627,127.128 138.912,127.447 138.150 C 127.765 137.388,127.919 136.593,127.789 136.382 C 127.659 136.172,127.724 136.000,127.933 136.000 C 128.142 136.000,128.435 135.505,128.584 134.900 C 128.733 134.295,129.298 133.038,129.840 132.107 C 130.382 131.176,130.823 130.325,130.821 130.215 C 130.819 130.106,131.531 129.247,132.404 128.308 C 133.276 127.369,133.992 126.473,133.995 126.318 C 133.998 126.163,134.454 125.582,135.010 125.027 C 135.786 124.250,135.964 123.761,135.777 122.908 C 135.584 122.021,135.627 121.919,135.994 122.400 C 136.363 122.883,136.400 122.805,136.186 122.000 C 136.039 121.450,135.633 120.775,135.283 120.500 C 134.488 119.875,133.048 119.831,133.426 120.443 C 133.611 120.741,133.422 120.797,132.848 120.615 C 132.262 120.429,131.921 120.540,131.756 120.970 C 131.624 121.314,131.387 121.516,131.229 121.418 C 131.072 121.321,129.339 122.852,127.380 124.820 C 125.420 126.789,123.982 128.400,124.185 128.400 C 124.611 128.400,123.150 129.568,122.700 129.587 C 122.177 129.609,122.376 126.626,123.048 124.373 C 123.404 123.178,123.750 121.930,123.817 121.600 C 123.884 121.270,123.975 120.955,124.019 120.900 C 124.064 120.845,124.138 120.665,124.185 120.500 C 124.231 120.335,124.402 119.899,124.565 119.531 C 124.728 119.163,124.901 118.623,124.950 118.331 C 124.999 118.039,125.261 117.395,125.533 116.900 C 125.805 116.405,125.919 116.000,125.786 116.000 C 125.652 116.000,125.827 115.715,126.175 115.368 C 126.523 115.020,126.705 114.570,126.580 114.368 C 126.455 114.165,126.516 114.000,126.716 114.000 C 127.115 114.000,128.660 110.802,128.500 110.308 C 128.445 110.139,128.580 110.000,128.800 110.000 C 129.020 110.000,129.200 109.640,129.200 109.200 C 129.200 108.760,129.020 108.400,128.800 108.400 C 128.580 108.400,128.445 108.175,128.500 107.900 C 128.555 107.625,128.375 107.445,128.100 107.500 C 127.825 107.555,127.600 107.420,127.600 107.200 C 127.600 106.980,127.240 106.800,126.800 106.800 C 126.360 106.800,126.000 106.974,126.000 107.187 M122.066 133.694 C 121.526 134.234,120.800 133.720,120.800 132.796 C 120.800 131.509,122.173 131.039,122.331 132.273 C 122.403 132.836,122.284 133.476,122.066 133.694 M279.200 132.790 C 279.200 133.777,278.411 134.262,277.961 133.551 C 277.234 132.402,277.520 131.129,278.400 131.600 C 278.840 131.835,279.200 132.371,279.200 132.790 M129.822 165.635 C 129.969 165.874,129.882 166.278,129.628 166.532 C 129.182 166.978,128.423 166.338,128.406 165.500 C 128.397 165.038,129.519 165.145,129.822 165.635 M271.280 166.480 C 270.907 166.853,270.690 166.850,270.303 166.463 C 269.908 166.068,269.927 165.892,270.400 165.600 C 271.202 165.104,271.929 165.831,271.280 166.480 " stroke="none" fill="#dab564" fill-rule="evenodd"></path><path id="path1" d="M127.600 107.200 C 127.600 107.420,127.825 107.555,128.100 107.500 C 128.375 107.445,128.555 107.625,128.500 107.900 C 128.445 108.175,128.580 108.400,128.800 108.400 C 129.342 108.400,129.304 107.864,128.720 107.280 C 128.136 106.696,127.600 106.658,127.600 107.200 M263.600 122.400 C 263.600 123.147,263.707 123.253,264.080 122.880 C 264.453 122.507,264.453 122.293,264.080 121.920 C 263.707 121.547,263.600 121.653,263.600 122.400 M270.355 122.717 C 270.811 123.568,274.632 127.200,275.071 127.200 C 275.239 127.200,274.217 126.030,272.800 124.600 C 270.043 121.819,269.757 121.598,270.355 122.717 M127.385 124.500 L 125.400 126.600 127.500 124.615 C 128.655 123.523,129.600 122.578,129.600 122.515 C 129.600 122.217,129.229 122.549,127.385 124.500 M277.276 127.087 C 277.211 128.874,277.099 129.144,276.500 128.957 C 275.846 128.754,275.846 128.769,276.508 129.194 C 276.898 129.445,277.097 129.863,276.950 130.125 C 276.753 130.475,276.809 130.484,277.163 130.158 C 277.468 129.878,277.590 128.857,277.497 127.358 L 277.351 125.000 277.276 127.087 M122.400 127.733 C 122.400 128.760,122.563 129.600,122.762 129.600 C 123.088 129.600,122.895 126.436,122.545 126.033 C 122.465 125.942,122.400 126.707,122.400 127.733 M121.500 131.644 C 120.722 132.084,120.561 133.405,121.235 133.822 C 121.900 134.233,122.478 133.417,122.331 132.273 C 122.223 131.425,122.079 131.317,121.500 131.644 M277.606 132.086 C 277.614 133.288,278.198 134.172,278.755 133.828 C 279.475 133.383,279.265 132.063,278.400 131.600 C 277.708 131.230,277.601 131.295,277.606 132.086 M146.344 148.032 L 145.400 148.864 146.326 148.276 C 147.202 147.720,148.980 147.785,148.625 148.360 C 148.533 148.508,148.785 148.629,149.184 148.629 C 149.609 148.629,149.828 148.417,149.713 148.117 C 149.605 147.835,149.355 147.704,149.158 147.826 C 148.961 147.948,148.800 147.857,148.800 147.624 C 148.800 146.910,147.343 147.152,146.344 148.032 M251.200 147.600 C 251.200 147.820,251.459 148.000,251.776 148.000 C 252.093 148.000,252.464 147.820,252.600 147.600 C 252.736 147.380,252.477 147.200,252.024 147.200 C 251.571 147.200,251.200 147.380,251.200 147.600 M150.901 155.000 C 150.905 155.880,150.987 156.193,151.083 155.695 C 151.179 155.198,151.175 154.478,151.075 154.095 C 150.975 153.713,150.896 154.120,150.901 155.000 M144.546 157.800 C 144.547 160.000,144.614 160.849,144.695 159.687 C 144.776 158.524,144.776 156.724,144.693 155.687 C 144.611 154.649,144.545 155.600,144.546 157.800 M290.800 155.600 C 290.800 155.820,291.025 155.955,291.300 155.900 C 291.575 155.845,291.751 156.038,291.690 156.330 C 291.630 156.621,291.773 156.740,292.010 156.594 C 292.311 156.408,292.299 156.160,291.970 155.764 C 291.427 155.109,290.800 155.021,290.800 155.600 M112.400 165.400 C 113.146 166.170,113.847 166.800,113.957 166.800 C 114.067 166.800,113.546 166.170,112.800 165.400 C 112.054 164.630,111.353 164.000,111.243 164.000 C 111.133 164.000,111.654 164.630,112.400 165.400 M287.292 165.021 C 286.805 165.362,286.202 166.037,285.953 166.521 C 285.626 167.154,285.905 167.014,286.950 166.022 C 288.291 164.747,288.577 164.400,288.289 164.400 C 288.228 164.400,287.779 164.679,287.292 165.021 M128.406 165.500 C 128.423 166.338,129.182 166.978,129.628 166.532 C 129.882 166.278,129.969 165.874,129.822 165.635 C 129.519 165.145,128.397 165.038,128.406 165.500 M270.400 165.600 C 269.927 165.892,269.908 166.068,270.303 166.463 C 270.690 166.850,270.907 166.853,271.280 166.480 C 271.929 165.831,271.202 165.104,270.400 165.600 M147.600 185.400 C 147.600 186.170,147.670 186.800,147.756 186.800 C 147.842 186.800,147.986 186.170,148.076 185.400 C 148.166 184.630,148.096 184.000,147.920 184.000 C 147.744 184.000,147.600 184.630,147.600 185.400 M160.806 184.500 C 160.803 184.885,161.070 185.200,161.400 185.200 C 161.730 185.200,162.000 185.391,162.000 185.624 C 162.000 185.857,162.203 185.922,162.451 185.768 C 162.752 185.583,162.651 185.352,162.151 185.079 C 161.738 184.853,161.268 184.473,161.106 184.234 C 160.927 183.970,160.810 184.074,160.806 184.500 M236.400 185.660 C 236.400 185.820,236.760 185.923,237.200 185.890 C 237.640 185.857,238.000 185.699,238.000 185.540 C 238.000 185.380,237.640 185.277,237.200 185.310 C 236.760 185.343,236.400 185.501,236.400 185.660 M170.909 211.200 C 170.909 212.190,170.987 212.595,171.082 212.100 C 171.178 211.605,171.178 210.795,171.082 210.300 C 170.987 209.805,170.909 210.210,170.909 211.200 M178.048 232.054 C 177.264 233.772,177.181 234.277,177.577 234.912 C 177.842 235.337,177.886 235.577,177.675 235.446 C 177.464 235.316,177.195 235.577,177.077 236.027 C 176.905 236.686,176.970 236.757,177.412 236.390 C 178.978 235.090,180.505 236.981,181.400 241.328 C 182.345 245.920,184.997 253.533,186.037 254.639 C 187.898 256.620,188.075 255.416,186.628 250.621 C 186.094 248.849,185.178 245.150,184.592 242.400 C 182.737 233.691,181.138 230.049,179.590 231.006 C 179.409 231.118,179.202 230.930,179.130 230.588 C 179.059 230.247,178.572 230.906,178.048 232.054 M219.489 231.455 C 217.877 232.300,217.312 233.754,215.581 241.519 C 214.713 245.414,213.602 250.075,213.112 251.878 C 212.136 255.470,212.320 256.277,213.773 254.779 C 215.069 253.442,216.599 249.465,217.843 244.200 C 219.615 236.698,220.717 234.913,222.789 236.193 C 223.066 236.365,223.068 236.106,222.796 235.389 C 222.575 234.808,222.493 234.173,222.613 233.978 C 223.455 232.616,221.023 230.651,219.489 231.455 M228.198 284.002 C 227.128 285.184,227.701 285.370,228.801 284.198 C 229.317 283.649,229.556 283.200,229.332 283.200 C 229.107 283.200,228.597 283.561,228.198 284.002 " stroke="none" fill="#706045" fill-rule="evenodd"></path></g></svg>